<?xml version="1.0" encoding="utf-8"?>
<!-- Generator: Adobe Illustrator 15.1.0, SVG Export Plug-In  -->
<!DOCTYPE svg PUBLIC "-//W3C//DTD SVG 1.1//EN" "http://www.w3.org/Graphics/SVG/1.1/DTD/svg11.dtd" [
	<!ENTITY ns_flows "http://ns.adobe.com/Flows/1.0/">
]>
<svg version="1.1"
	 xmlns="http://www.w3.org/2000/svg" xmlns:xlink="http://www.w3.org/1999/xlink" xmlns:a="http://ns.adobe.com/AdobeSVGViewerExtensions/3.0/"
	 x="0px" y="0px" width="48px" height="48px" viewBox="0 0 48 48" overflow="visible" enable-background="new 0 0 48 48"
	 xml:space="preserve">
<defs>
</defs>
<path fill="#2D2D2D" d="M9.303,16.766c1.917-1.764,4.225-2.646,6.924-2.646c3.374,0,6.195,1.411,8.465,4.232l1.027-1.165
	c0.761-0.752,1.761-1.562,2.796-2.096c1.495-0.771,3.308-1.084,4.849-1.084c3.597,0,7.896,2.583,7.896,5.982L40.1,20.168h-7.106
	c-4.112,0-7.353,0.811-9.725,2.431c-2.372,1.622-3.558,4.062-3.558,7.324c0,1.084,0.13,2.096,0.383,3.036
	c-1.327,0.566-2.784,0.852-4.373,0.852c-2.576,0-4.77-0.904-6.579-2.714c-1.811-1.81-2.715-4.21-2.715-7.2S7.386,18.53,9.303,16.766
	z M41.262,26.514v0.844c0,2.226-1.592,3.846-2.797,4.814c-1.207,0.969-3.364,1.588-4.944,1.588c-1.582,0-2.731-0.441-3.581-1.054
	c-0.851-0.612-1.275-1.724-1.275-2.871c0-2.214,1.78-3.321,5.337-3.321H41.262z M48,0H0v48h48L48,0z"/>
</svg>
